<?xml version="1.0" encoding="UTF-8" standalone="no"?>
<!DOCTYPE svg PUBLIC "-//W3C//DTD SVG 1.1//EN" "http://www.w3.org/Graphics/SVG/1.1/DTD/svg11.dtd">
<svg width="100%" height="100%" viewBox="0 0 278 429" version="1.1" xmlns="http://www.w3.org/2000/svg" xmlns:xlink="http://www.w3.org/1999/xlink" xml:space="preserve" xmlns:serif="http://www.serif.com/" style="fill-rule:evenodd;clip-rule:evenodd;stroke-linejoin:round;stroke-miterlimit:2;">
    <g transform="matrix(1,0,0,1,-373.258,-169.924)">
        <g transform="matrix(1,0,0,1,-3.23289,-58.6916)">
            <g transform="matrix(-1.07239,0.619143,0.509099,0.881786,742.192,33.5801)">
                <path d="M296.537,451.355L296.537,247.007L361.682,247.007L361.682,452.78L328.397,419.495L296.537,451.355Z" style="fill:white;"/>
            </g>
            <g transform="matrix(1.07239,0.619143,-0.509099,0.881786,291.996,33.5801)">
                <path d="M296.537,451.355L296.537,247.007L361.682,247.007L361.682,452.78L328.397,419.495L296.537,451.355Z" style="fill:white;"/>
            </g>
            <path d="M485.913,257.935C485.913,241.753 499.051,228.615 515.233,228.615C531.415,228.615 544.553,241.753 544.553,257.935C552.644,243.921 570.59,239.112 584.604,247.203C598.618,255.294 603.427,273.241 595.336,287.255C609.35,279.164 627.296,283.973 635.387,297.987C643.478,312.001 638.669,329.947 624.655,338.038C640.837,338.038 653.975,351.176 653.975,367.358C653.975,383.54 640.837,396.677 624.655,396.677C638.669,404.768 643.478,422.715 635.387,436.729C627.296,450.743 609.35,455.551 595.336,447.46C603.427,461.474 598.618,479.421 584.604,487.512C570.59,495.603 552.644,490.794 544.553,476.78C544.553,492.962 531.415,506.1 515.233,506.1C499.051,506.1 485.913,492.962 485.913,476.78C477.822,490.794 459.876,495.603 445.862,487.512C431.848,479.421 427.039,461.474 435.13,447.46C421.116,455.551 403.17,450.743 395.079,436.729C386.988,422.715 391.796,404.768 405.81,396.677C389.628,396.677 376.491,383.54 376.491,367.358C376.491,351.176 389.628,338.038 405.81,338.038C391.796,329.947 386.988,312.001 395.079,297.987C403.17,283.973 421.116,279.164 435.13,287.255C427.039,273.241 431.848,255.294 445.862,247.203C459.876,239.112 477.822,243.921 485.913,257.935ZM515.233,301.681C478.985,301.681 449.556,331.11 449.556,367.358C449.556,403.606 478.985,433.035 515.233,433.035C551.481,433.035 580.91,403.606 580.91,367.358C580.91,331.11 551.481,301.681 515.233,301.681Z" style="fill:white;"/>
            <g transform="matrix(0.965926,0.258819,-0.258819,0.965926,112.635,-120.835)">
                <path d="M485.913,257.935C485.913,241.753 499.051,228.615 515.233,228.615C531.415,228.615 544.553,241.753 544.553,257.935C552.644,243.921 570.59,239.112 584.604,247.203C598.618,255.294 603.427,273.241 595.336,287.255C609.35,279.164 627.296,283.973 635.387,297.987C643.478,312.001 638.669,329.947 624.655,338.038C640.837,338.038 653.975,351.176 653.975,367.358C653.975,383.54 640.837,396.677 624.655,396.677C638.669,404.768 643.478,422.715 635.387,436.729C627.296,450.743 609.35,455.551 595.336,447.46C603.427,461.474 598.618,479.421 584.604,487.512C570.59,495.603 552.644,490.794 544.553,476.78C544.553,492.962 531.415,506.1 515.233,506.1C499.051,506.1 485.913,492.962 485.913,476.78C477.822,490.794 459.876,495.603 445.862,487.512C431.848,479.421 427.039,461.474 435.13,447.46C421.116,455.551 403.17,450.743 395.079,436.729C386.988,422.715 391.796,404.768 405.81,396.677C389.628,396.677 376.491,383.54 376.491,367.358C376.491,351.176 389.628,338.038 405.81,338.038C391.796,329.947 386.988,312.001 395.079,297.987C403.17,283.973 421.116,279.164 435.13,287.255C427.039,273.241 431.848,255.294 445.862,247.203C459.876,239.112 477.822,243.921 485.913,257.935ZM515.233,301.681C478.985,301.681 449.556,331.11 449.556,367.358C449.556,403.606 478.985,433.035 515.233,433.035C551.481,433.035 580.91,403.606 580.91,367.358C580.91,331.11 551.481,301.681 515.233,301.681Z" style="fill:white;"/>
            </g>
        </g>
    </g>
</svg>
